#N canvas 538 35 1287 988 10;
#X obj 1 -6 cnv 15 1280 1024 empty empty empty 20 12 1 32 -33289 -66577
0;
#X obj 949 774 cnv 15 100 60 empty empty empty 20 12 0 14 -233017 -66577
0;
#X obj 1377 796 cnv 15 100 60 empty empty empty 20 12 0 14 -233017
-66577 0;
#X obj 1387 807 cnv 15 100 60 empty empty empty 20 12 0 14 -233017
-66577 0;
#X obj 1397 817 cnv 15 100 60 empty empty empty 20 12 0 14 -233017
-66577 0;
#X obj 1407 827 cnv 15 100 60 empty empty empty 20 12 0 14 -233017
-66577 0;
#X obj 1417 837 cnv 15 100 60 empty empty empty 20 12 0 14 -233017
-66577 0;
#X obj 1427 847 cnv 15 100 60 empty empty empty 20 12 0 14 -233017
-66577 0;
#X obj 1437 857 cnv 15 100 60 empty empty empty 20 12 0 14 -233017
-66577 0;
#X obj 1447 867 cnv 15 100 60 empty empty empty 20 12 0 14 -233017
-66577 0;
#X obj 1457 877 cnv 15 100 60 empty empty empty 20 12 0 14 -233017
-66577 0;
#X obj 1467 887 cnv 15 100 60 empty empty empty 20 12 0 14 -233017
-66577 0;
#X obj 1477 897 cnv 15 100 60 empty empty empty 20 12 0 14 -233017
-66577 0;
#X obj 6 -1 cnv 15 1276 1020 empty empty AleTVs 20 24 1 32 -229388
-66577 0;
#N canvas 685 312 776 528 CAPTEURS_PRESENCE 0;
#X obj 101 251 cnv 15 398 118 empty empty Presence 20 12 0 14 -128992
-66577 0;
#X obj 203 188 random 6;
#X obj 203 153 metro 1500;
#X obj 203 241 select 0 1 2 3 4 5;
#X floatatom 203 214 5 0 0 0 - - -, f 5;
#X obj 203 113 tgl 15 0 empty empty empty 17 7 0 10 -262144 -1 -1 1
1;
#X obj 203 80 loadbang;
#X obj 203 300 bng 21 250 50 0 empty empty QQun -4 -8 1 10 -4034 -258113
-1;
#X obj 235 300 bng 21 250 50 0 empty empty QQun -4 -8 1 10 -4034 -258113
-1;
#X obj 266 300 bng 21 250 50 0 empty empty QQun -4 -8 1 10 -4034 -258113
-1;
#X obj 299 299 bng 21 250 50 0 empty empty QQun -4 -8 1 10 -4034 -258113
-1;
#X obj 331 299 bng 21 250 50 0 empty empty QQun -4 -8 1 10 -4034 -258113
-1;
#X obj 362 298 bng 21 250 50 0 empty empty QQun -4 -8 1 10 -4034 -258113
-1;
#X obj 413 299 bng 21 250 50 0 empty empty Mvt -4 -8 1 10 -106458 -258113
-1;
#X obj 413 223 r yamvt;
#X connect 1 0 4 0;
#X connect 2 0 1 0;
#X connect 3 0 7 0;
#X connect 3 1 8 0;
#X connect 3 2 9 0;
#X connect 3 3 10 0;
#X connect 3 4 11 0;
#X connect 3 5 12 0;
#X connect 4 0 3 0;
#X connect 5 0 2 0;
#X connect 6 0 5 0;
#X connect 14 0 13 0;
#X coords 0 -1 1 1 400 120 1 100 250;
#X restore 310 41 pd CAPTEURS_PRESENCE;
#N canvas 3 58 1082 706 GESTION_ECRAN 0;
#X obj 101 101 cnv 15 298 98 empty empty Gestion_écran 20 12 0 14
-163053 -66577 0;
#X msg 211 578 create \, 1;
#X msg 288 579 destroy;
#X obj 145 556 gemwin 25;
#X msg 233 437 dimen 800 600;
#X msg 355 425 offset 0 0;
#X msg 232 417 dimen 400 300;
#X msg 356 447 offset 1024 0;
#X msg 356 476 cursor 0;
#X msg 356 494 cursor 1;
#X msg 233 460 dimen 1024 768;
#X msg 357 525 border 0;
#X msg 357 543 border 1;
#X obj 145 145 tgl 42 0 empty empty MATROX 17 -7 0 10 -4034 -1 -1 0
1;
#X obj 189 294 tgl 32 0 empty empty Test 17 -7 0 10 -4034 -1 -1 0 1
;
#X obj 145 199 sel 0 1;
#X msg 145 249 0 \, destroy;
#X obj 189 335 sel 0 1;
#X msg 189 385 0 \, destroy;
#X obj 257 151 tgl 32 0 empty empty Test 17 -7 0 10 -4034 -1 -1 0 1
;
#X msg 168 224 offset 1920 0 \, dimen 3072 768 \, border 0 \, create
\, 1;
#X msg 212 360 offset 0 0 \, dimen 1024 265 \, border 1 \, create \,
1;
#X connect 1 0 3 0;
#X connect 2 0 3 0;
#X connect 4 0 3 0;
#X connect 5 0 3 0;
#X connect 6 0 3 0;
#X connect 8 0 3 0;
#X connect 10 0 3 0;
#X connect 11 0 3 0;
#X connect 12 0 3 0;
#X connect 13 0 15 0;
#X connect 14 0 17 0;
#X connect 15 0 16 0;
#X connect 15 1 20 0;
#X connect 16 0 3 0;
#X connect 17 0 18 0;
#X connect 17 1 21 0;
#X connect 18 0 3 0;
#X connect 19 0 14 0;
#X connect 20 0 3 0;
#X connect 21 0 3 0;
#X coords 0 -1 1 1 300 100 1 100 100;
#X restore 811 56 pd GESTION_ECRAN;
#X floatatom 694 521 5 0 0 0 - - -, f 5;
#X obj 694 498 r nb-out;
#X msg 538 742 1;
#X msg 572 741 0;
#X obj 694 567 sel 1 2 3 4 5;
#X obj 648 607 t b b;
#X obj 538 763 Lecteur_AV 1;
#X msg 629 742 1;
#X msg 663 741 0;
#X msg 718 743 1;
#X msg 752 742 0;
#X msg 809 745 1;
#X msg 843 744 0;
#X msg 897 746 1;
#X msg 931 745 0;
#X obj 691 607 t b b;
#X obj 737 608 t b b;
#X obj 780 607 t b b;
#X obj 830 606 t b b;
#X obj 694 544 once;
#X obj 738 519 r finvideo;
#X obj 629 763 Lecteur_AV 2;
#X obj 718 764 Lecteur_AV 3;
#X obj 809 766 Lecteur_AV 4;
#X obj 897 767 Lecteur_AV 5;
#N canvas 676 103 1209 891 webcam_record 0;
#X obj 511 99 cnv 15 298 138 empty empty empty 20 12 0 14 -1 -66577
0;
#X obj 338 288 pix_video;
#X floatatom 370 750 5 0 0 0 - - -, f 5;
#X floatatom 422 782 5 0 0 0 - - -, f 5;
#X obj 338 149 gemhead 1;
#X obj 338 126 tgl 15 0 empty empty empty 17 7 0 10 -262144 -1 -1 0
1;
#X obj 321 808 rectangle 7.111 4;
#X obj 1115 838 pix_record;
#X obj 1134 807 cnv 15 145 25 empty empty empty 20 12 0 14 -225271
-66577 0;
#X msg 1144 811 bang;
#X msg 1216 811 auto \$1;
#X obj 1197 812 tgl 15 0 empty empty empty 0 -6 0 8 -262144 -1 -1 0
1;
#X obj 1134 708 t a;
#X msg 1184 779 record \$1;
#X obj 1164 781 tgl 15 0 empty empty empty 0 -6 0 8 -262144 -1 -1 0
1;
#X obj 1127 779 t a;
#X floatatom 1203 841 5 0 0 0 - - -, f 5;
#X obj 421 91 loadbang;
#X obj 421 122 t b b;
#X msg 446 255 device 0;
#X msg 1299 660 codec v4l2 \, file /dev/video10 \, record 1;
#X obj 1114 628 rotateXYZ 0 0 0;
#X floatatom 1155 602 5 0 0 0 - - -, f 5;
#X obj 1042 540 pix_separator;
#X obj 338 343 pix_flip;
#X obj 1299 627 loadbang;
#X obj 513 101 cnv 15 293 133 empty empty Webcam_rec 20 12 0 14 -204786
-66577 0;
#X obj 534 143 hradio 15 1 0 3 empty empty Num_de_webcam 0 -8 0 10
-262144 -1 -1 0;
#X msg 447 240 device 1;
#X msg 447 224 device \$1;
#X floatatom 534 163 5 0 0 0 - - -, f 5;
#X floatatom 537 204 4 0 0 2 width - -, f 4;
#X floatatom 574 204 4 0 0 2 height - -, f 4;
#X floatatom 552 329 4 0 0 1 bytes/pixel - -, f 4;
#X floatatom 562 312 5 0 0 1 coulorspace - -, f 5;
#X obj 522 291 pix_info . . . .;
#X floatatom 757 213 5 0 0 2 images - -, f 5;
#X obj 669 211 bng 15 250 50 0 empty empty Lancer_rec_v4l2 0 -6 0 8
-258699 -1 -1;
#X msg 231 226 colorspace RGBA;
#X msg 351 232 dimen 640 480;
#X obj 1472 787 ggee/shell;
#X obj 1472 835 print stout;
#X obj 1527 809 print done;
#X msg 1608 727 killall ffmpeg;
#X obj 1472 692 r startrec;
#X obj 1607 695 r stoprec;
#X msg 1472 726 ./launch_rec.sh 30;
#X obj 422 738 / 16;
#X obj 422 761 * 9;
#X obj 458 740 / 4;
#X obj 458 763 * 3;
#X floatatom 370 774 5 0 0 0 - - -, f 5;
#X text 334 750 16/9;
#X text 338 774 4/3;
#X obj 429 676 loadbang;
#X msg 438 277 none;
#X msg 438 297 horizontal;
#X msg 438 317 vertical;
#X obj 1115 675 pix_flip;
#X msg 1105 417 vertical;
#X msg 1124 392 none;
#X obj 621 50 loadbang;
#X obj 621 204 tgl 15 0 empty empty Rec_inversé 0 -8 0 10 -262144
-258113 -1 0 1;
#X msg 621 71 1;
#X obj 1105 367 sel 1 0;
#X msg 448 144 0;
#X msg 374 192 dimen 640 480;
#X text 822 161 lancer PD avec NOAUDIO pour rec video+audio !!!;
#X text 824 205 sudo apt-get install v4l2loopback-dkms v4l2loopback-utils
sudo modprobe v4l2loopback video_nr=10 \, 11 \, 12 \, 13 \, 69 \, 99
;
#X msg 429 699 5.334;
#X obj 321 694 pix_texture;
#X obj 191 386 separator;
#X obj 355 427 separator;
#X obj 322 608 pix_gain;
#X msg 498 463 9;
#X msg 468 465 1;
#X msg 525 462 3;
#X obj 322 567 pix_contrast;
#X floatatom 452 499 5 0 0 1 contrast - -, f 5;
#X floatatom 454 520 5 0 0 1 saturation - -, f 5;
#X floatatom 454 541 5 0 0 1 Gain - -, f 5;
#X msg 566 473 3;
#X msg 558 494 1;
#X msg 571 453 -2;
#X msg 545 573 1;
#X msg 553 552 -1;
#X msg 558 532 5;
#X obj 355 453 pix_separator;
#X obj 469 419 loadbang;
#X obj 681 113 hsl 85 10 0 1 0 0 \$0-threshold \$0-threshold-in threshold
4 6 1 9 -262110 -1 -1 840 1;
#X obj 681 123 hsl 85 10 0 1 0 0 \$0-blur \$0-blur-in blur 4 6 1 9
-262110 -1 -1 1680 1;
#X obj 768 123 tgl 10 0 \$0-debug \$0-debug-in D 2 6 1 9 -262110 -1
-1 0 1;
#X obj 768 113 tgl 10 0 \$0-on \$0-on-in empty 17 7 1 9 -262110 -1
-1 1 1;
#X obj -63 403 spigot;
#X floatatom -58 290 5 0 0 0 - - -, f 5;
#X floatatom -18 290 5 0 0 0 - - -, f 5;
#X floatatom 23 291 5 0 0 0 - - -, f 5;
#X obj 90 287 tgl 15 0 empty empty Mo-Track 17 7 0 10 -1 -258113 -1
1 1;
#X msg 164 270 1;
#X floatatom -10 748 5 0 0 0 - - -, f 5;
#X floatatom 42 780 5 0 0 0 - - -, f 5;
#X obj -59 806 rectangle 7.111 4;
#X obj 42 736 / 16;
#X obj 42 759 * 9;
#X obj 78 738 / 4;
#X obj 78 761 * 3;
#X floatatom -10 772 5 0 0 0 - - -, f 5;
#X text -46 748 16/9;
#X text -42 772 4/3;
#X obj 49 674 loadbang;
#X msg 49 697 5.334;
#X obj -59 531 translateXYZ -10 0 0;
#X obj -59 705 pix_texture;
#X obj -59 675 alpha;
#X obj -113 630 tgl 15 0 empty empty empty 17 7 0 10 -262144 -1 -1
1 1;
#X obj 7 664 tgl 15 0 empty empty empty 17 7 0 10 -262144 -1 -1 0 1
;
#X floatatom 640 124 5 0 0 0 - - -, f 5;
#X floatatom 640 110 5 0 0 0 - - -, f 5;
#N canvas 275 139 637 500 \$0-processing 0;
#X obj 115 185 pix_motionblur;
#X obj 115 134 pix_movement 0.5;
#X obj 146 426 outlet;
#X obj 115 212 pix_blob 4;
#X obj 247 422 outlet;
#X text 274 445 Y;
#X text 160 446 X;
#X obj 115 65 inlet;
#X obj 272 101 r \$0-threshold;
#X obj 219 162 r \$0-blur;
#X obj 172 240 s \$0-blob-size;
#X obj 146 342 r \$0-blob-x;
#X obj 247 285 r \$0-blob-y;
#X obj 503 430 outlet;
#X obj 503 402 * 100;
#X obj 134 284 s \$0-blob-x;
#X obj 153 261 s \$0-blob-y;
#X obj 504 383 r \$0-blob-size;
#X obj 19 426 outlet;
#X obj 115 114 pix_rgba;
#X floatatom 245 121 5 0 0 0 - - -, f 5;
#X connect 0 0 3 0;
#X connect 1 0 0 0;
#X connect 3 0 18 0;
#X connect 3 1 15 0;
#X connect 3 2 16 0;
#X connect 3 3 10 0;
#X connect 7 0 19 0;
#X connect 8 0 20 0;
#X connect 9 0 0 1;
#X connect 11 0 2 0;
#X connect 12 0 4 0;
#X connect 14 0 13 0;
#X connect 17 0 14 0;
#X connect 19 0 1 0;
#X connect 20 0 1 1;
#X restore -63 426 pd \$0-processing;
#X obj -126 475 loadbang;
#X obj -59 580 spigot;
#X msg -126 541 1;
#X obj 91 264 tgl 15 0 empty empty Visu 17 7 0 10 -258113 -1 -1 1 1
;
#X msg 165 248 1;
#X obj 112 373 average 10;
#X floatatom 202 450 5 0 0 0 - - -, f 5;
#X obj 112 405 > 15;
#X obj 112 427 sel 1;
#X obj 706 152 bng 21 250 50 0 empty empty Mvt -4 -8 1 10 -106458 -258113
-1;
#X obj -296 41 inlet command;
#X obj -267 69 initbang;
#X obj -296 213 s \$0-threshold-in;
#X obj -254 192 s \$0-blur-in;
#X obj -211 171 s \$0-debug-in;
#X obj -296 125 route threshold blur debug on;
#X obj -168 150 s \$0-on-in;
#X msg -266 96 threshold 0.1 \, blur 0.2 \, on 1;
#X obj 112 459 s yamvt;
#X obj 816 135 r yamvt;
#X obj 198 253 loadbang;
#X obj 697 421 separator;
#X obj 697 447 pix_separator;
#X floatatom 744 783 5 0 0 0 - - -, f 5;
#X floatatom 796 815 5 0 0 0 - - -, f 5;
#X obj 695 841 rectangle 7.111 4;
#X obj 796 771 / 16;
#X obj 796 794 * 9;
#X obj 832 773 / 4;
#X obj 832 796 * 3;
#X floatatom 744 807 5 0 0 0 - - -, f 5;
#X text 708 783 16/9;
#X text 712 807 4/3;
#X obj 803 709 loadbang;
#X msg 803 732 5.334;
#X obj 695 740 pix_texture;
#X obj 695 710 alpha;
#X obj 677 696 tgl 15 0 empty empty empty 17 7 0 10 -262144 -1 -1 1
1;
#X obj 734 697 tgl 15 0 empty empty empty 17 7 0 10 -262144 -1 -1 0
1;
#X obj 624 659 loadbang;
#X obj 695 615 spigot;
#X msg 624 679 1;
#X obj 752 609 tgl 15 0 empty empty Visu 17 7 0 10 -258113 -1 -1 1
1;
#X msg 826 593 1;
#X obj 859 598 loadbang;
#X obj 697 477 pix_frei0r nois0r;
#X floatatom 927 557 5 0 0 0 - - -, f 5;
#X obj 695 570 translateXYZ 10.14 0 0;
#X obj 322 655 alpha;
#X obj 304 641 tgl 15 0 empty empty empty 17 7 0 10 -262144 -1 -1 1
1;
#X obj 361 642 tgl 15 0 empty empty empty 17 7 0 10 -262144 -1 -1 0
1;
#X obj 251 604 loadbang;
#X obj -59 629 colorRGB 1 1 1 1;
#X floatatom 50 612 5 0 0 0 - - -, f 5;
#X obj 50 547 vsl 10 60 0 1 0 0 empty empty empty 0 -9 0 10 -128992
-262144 -1 0 1;
#X obj 695 667 colorRGB 1 1 1 1;
#X floatatom 804 650 5 0 0 0 - - -, f 5;
#X obj 804 585 vsl 10 60 0 1 0 0 empty empty empty 0 -9 0 10 -128992
-262144 -1 0 1;
#X obj 753 531 pix_gain;
#X msg 929 399 9;
#X msg 899 401 1;
#X msg 956 398 3;
#X obj 753 503 pix_contrast;
#X floatatom 883 435 5 0 0 1 contrast - -, f 5;
#X floatatom 885 456 5 0 0 1 saturation - -, f 5;
#X floatatom 885 477 5 0 0 1 Gain - -, f 5;
#X msg 997 409 3;
#X msg 989 430 1;
#X msg 1002 389 -2;
#X msg 976 509 1;
#X msg 984 488 -1;
#X msg 989 468 5;
#X obj 901 348 loadbang;
#X floatatom 849 530 5 0 0 0 - - -, f 5;
#X obj 715 550 pix_motionblur 0.29;
#X obj 254 491 pix_frei0r nois0r;
#X obj 254 428 separator;
#X obj 254 451 pix_separator;
#X obj 410 173 delay 500;
#X obj 316 535 pix_diff;
#X msg 251 624 1;
#X connect 1 0 35 0;
#X connect 1 0 24 0;
#X connect 2 0 6 1;
#X connect 2 0 47 0;
#X connect 3 0 6 2;
#X connect 4 0 1 0;
#X connect 5 0 4 0;
#X connect 7 1 16 0;
#X connect 9 0 7 0;
#X connect 10 0 7 0;
#X connect 11 0 10 0;
#X connect 12 0 7 0;
#X connect 13 0 15 0;
#X connect 14 0 13 0;
#X connect 15 0 7 0;
#X connect 16 0 36 0;
#X connect 17 0 18 0;
#X connect 18 0 197 0;
#X connect 18 1 65 0;
#X connect 19 0 1 0;
#X connect 20 0 12 0;
#X connect 21 0 58 0;
#X connect 22 0 21 1;
#X connect 23 0 21 0;
#X connect 24 0 71 0;
#X connect 24 0 72 0;
#X connect 24 0 140 0;
#X connect 24 0 195 0;
#X connect 27 0 30 0;
#X connect 28 0 1 0;
#X connect 29 0 1 0;
#X connect 30 0 29 0;
#X connect 35 1 31 0;
#X connect 35 2 32 0;
#X connect 35 3 33 0;
#X connect 35 4 34 0;
#X connect 37 0 20 0;
#X connect 38 0 1 0;
#X connect 39 0 1 0;
#X connect 40 0 41 0;
#X connect 40 1 42 0;
#X connect 43 0 40 0;
#X connect 44 0 46 0;
#X connect 45 0 43 0;
#X connect 46 0 40 0;
#X connect 47 0 48 0;
#X connect 48 0 3 0;
#X connect 49 0 50 0;
#X connect 50 0 3 0;
#X connect 51 0 6 1;
#X connect 51 0 49 0;
#X connect 54 0 69 0;
#X connect 55 0 24 0;
#X connect 56 0 24 0;
#X connect 57 0 24 0;
#X connect 58 0 7 0;
#X connect 59 0 58 0;
#X connect 60 0 58 0;
#X connect 61 0 63 0;
#X connect 62 0 64 0;
#X connect 64 0 59 0;
#X connect 64 1 60 0;
#X connect 65 0 27 0;
#X connect 66 0 1 0;
#X connect 69 0 51 0;
#X connect 70 0 6 0;
#X connect 70 0 21 0;
#X connect 71 0 93 0;
#X connect 72 0 87 0;
#X connect 73 0 167 0;
#X connect 74 0 78 0;
#X connect 75 0 78 0;
#X connect 76 0 78 0;
#X connect 77 0 73 0;
#X connect 78 0 77 1;
#X connect 79 0 77 2;
#X connect 80 0 73 1;
#X connect 81 0 79 0;
#X connect 82 0 79 0;
#X connect 83 0 79 0;
#X connect 84 0 80 0;
#X connect 85 0 80 0;
#X connect 86 0 80 0;
#X connect 87 0 198 1;
#X connect 88 0 74 0;
#X connect 89 0 117 0;
#X connect 90 0 116 0;
#X connect 93 0 118 0;
#X connect 97 0 93 1;
#X connect 98 0 97 0;
#X connect 99 0 101 1;
#X connect 99 0 102 0;
#X connect 100 0 101 2;
#X connect 102 0 103 0;
#X connect 103 0 100 0;
#X connect 104 0 105 0;
#X connect 105 0 100 0;
#X connect 106 0 101 1;
#X connect 106 0 104 0;
#X connect 109 0 110 0;
#X connect 110 0 106 0;
#X connect 111 0 120 0;
#X connect 112 0 101 0;
#X connect 113 0 112 0;
#X connect 114 0 113 0;
#X connect 115 0 113 1;
#X connect 118 0 111 0;
#X connect 118 1 94 0;
#X connect 118 2 95 0;
#X connect 118 3 96 0;
#X connect 118 3 124 0;
#X connect 119 0 121 0;
#X connect 120 0 171 0;
#X connect 121 0 114 0;
#X connect 122 0 120 1;
#X connect 123 0 122 0;
#X connect 124 0 126 0;
#X connect 126 0 127 0;
#X connect 127 0 137 0;
#X connect 129 0 134 0;
#X connect 130 0 136 0;
#X connect 134 0 131 0;
#X connect 134 1 132 0;
#X connect 134 2 133 0;
#X connect 134 3 135 0;
#X connect 136 0 134 0;
#X connect 138 0 128 0;
#X connect 139 0 123 0;
#X connect 139 0 98 0;
#X connect 140 0 141 0;
#X connect 141 0 164 0;
#X connect 142 0 144 1;
#X connect 142 0 145 0;
#X connect 143 0 144 2;
#X connect 145 0 146 0;
#X connect 146 0 143 0;
#X connect 147 0 148 0;
#X connect 148 0 143 0;
#X connect 149 0 144 1;
#X connect 149 0 147 0;
#X connect 152 0 153 0;
#X connect 153 0 149 0;
#X connect 154 0 144 0;
#X connect 155 0 154 0;
#X connect 156 0 155 0;
#X connect 157 0 155 1;
#X connect 158 0 160 0;
#X connect 159 0 174 0;
#X connect 160 0 156 0;
#X connect 161 0 159 1;
#X connect 162 0 161 0;
#X connect 163 0 162 0;
#X connect 164 0 181 0;
#X connect 165 0 166 1;
#X connect 166 0 159 0;
#X connect 167 0 70 0;
#X connect 168 0 167 0;
#X connect 169 0 167 1;
#X connect 170 0 199 0;
#X connect 171 0 113 0;
#X connect 172 0 171 4;
#X connect 173 0 172 0;
#X connect 174 0 155 0;
#X connect 175 0 174 4;
#X connect 176 0 175 0;
#X connect 177 0 193 0;
#X connect 178 0 182 0;
#X connect 179 0 182 0;
#X connect 180 0 182 0;
#X connect 181 0 177 0;
#X connect 182 0 181 1;
#X connect 183 0 181 2;
#X connect 184 0 177 1;
#X connect 185 0 183 0;
#X connect 186 0 183 0;
#X connect 187 0 183 0;
#X connect 188 0 184 0;
#X connect 189 0 184 0;
#X connect 190 0 184 0;
#X connect 191 0 178 0;
#X connect 191 0 189 0;
#X connect 192 0 193 1;
#X connect 193 0 166 0;
#X connect 194 0 198 0;
#X connect 195 0 196 0;
#X connect 196 0 194 0;
#X connect 197 0 66 0;
#X connect 198 0 77 0;
#X connect 199 0 168 0;
#X coords 0 -1 1 1 300 140 1 510 98;
#X restore 815 217 pd webcam_record;
#N canvas 736 330 982 698 SPATIALSON 0;
#X obj 201 401 cnv 15 298 98 empty empty Spatialisation 20 12 0 14
-51233 -66577 0;
#X obj 912 554 cnv 15 100 60 empty empty empty 20 12 0 14 -233017 -66577
0;
#X floatatom 648 468 10 0 0 0 - - -, f 10;
#X floatatom 717 468 10 0 0 0 - - -, f 10;
#X floatatom 723 381 0 0 0 3 actual_azimuth - -;
#X floatatom 757 358 0 0 0 3 actual_elevation - -;
#X floatatom 767 337 7 0 0 1 actual_spreading - -, f 7;
#X text 666 177 to output updated values;
#X obj 648 198 metro 100;
#X obj 648 176 tgl 15 0 empty empty empty 17 7 0 10 -262144 -1 -1 1
1;
#X text 879 247 (ignore elevation in 2D \, that's for 3D);
#X obj 599 567 *~;
#X obj 628 568 *~;
#X floatatom 786 468 10 0 0 0 - - -, f 10;
#X floatatom 855 468 10 0 0 0 - - -, f 10;
#X obj 659 567 *~;
#X obj 688 568 *~;
#X text 554 35 Define 2D speaker arrangement with speakers at -135
\, -45 \, 0 \, 45 and 135 degree positions (0 degrees is the center
front). This is a classic 5.1 setup.;
#X floatatom 925 468 10 0 0 0 - - -, f 10;
#X obj 718 568 *~;
#X obj 546 405 *~ 0.2;
#X obj 546 314 noise~;
#X floatatom 296 446 5 0 0 2 - - -, f 5;
#X floatatom 705 268 5 0 0 2 - - -, f 5;
#X obj 299 430 hsl 100 13 0 360 0 0 empty empty azimuth 10 7 0 10 -258070
-1 -1 1495 1;
#X obj 708 251 hsl 100 13 0 360 0 0 empty empty elevation 10 7 0 10
-262144 -1 -1 0 1;
#X floatatom 407 448 5 0 0 2 - - -, f 5;
#X obj 410 431 hsl 60 13 0 100 0 0 empty empty spread 10 7 0 10 -259163
-1 -1 0 1;
#X text 855 269 (0-100);
#X text 815 248 (0-360);
#X text 775 230 (0-360);
#X floatatom 998 468 10 0 0 0 - - -, f 10;
#X obj 524 282 print vpab;
#X obj 648 419 route 0 1 2 3 4 5;
#X obj 648 310 vbap 0 0 30;
#X obj 695 662 dac~ 1 2 3 4 5 6;
#X obj 752 568 *~;
#X obj 641 93 loadbang;
#X obj 641 118 t b b b;
#X obj 540 542 tgl 15 0 empty empty empty 17 7 0 10 -262144 -1 -1 1
1;
#X obj 427 467 tgl 12 0 empty empty empty 17 7 0 10 -258113 -262144
-1 1 1;
#X obj 392 667 env~;
#X obj 433 667 env~;
#X obj 468 664 env~;
#X obj 502 664 env~;
#X obj 543 664 env~;
#X obj 578 661 env~;
#X obj 391 693 spigot;
#X obj 433 693 spigot;
#X obj 475 692 spigot;
#X obj 517 692 spigot;
#X obj 561 691 spigot;
#X obj 604 691 spigot;
#X obj 296 469 vsl 16 20 0 100 0 0 empty empty empty 0 -9 0 10 -258113
-1 -1 0 1;
#X obj 312 469 vsl 16 20 0 100 0 0 empty empty empty 0 -9 0 10 -258113
-1 -1 0 1;
#X obj 328 469 vsl 16 20 0 100 0 0 empty empty empty 0 -9 0 10 -258113
-1 -1 1149 1;
#X obj 344 469 vsl 16 20 0 100 0 0 empty empty empty 0 -9 0 10 -258113
-1 -1 1374 1;
#X obj 360 469 vsl 16 20 0 100 0 0 empty empty empty 0 -9 0 10 -258113
-1 -1 1057 1;
#X obj 376 469 vsl 16 20 0 100 0 0 empty empty empty 0 -9 0 10 -258113
-1 -1 0 1;
#X obj 310 107 random 360;
#X obj 310 82 metro 15000;
#X obj 310 190 line;
#X msg 310 163 \$1 \$2;
#X obj 310 138 pack f f;
#X obj 310 52 tgl 15 0 empty empty empty 17 7 0 10 -262144 -1 -1 1
1;
#X floatatom 310 218 5 0 0 0 - - -, f 5;
#X floatatom 461 56 5 0 0 0 - - -, f 5;
#X obj 455 186 bp~;
#X floatatom 555 345 0 0 0 0 - - -;
#X text 408 334 <-- center frequency;
#X obj 545 368 bp~ 100 10;
#X floatatom 612 346 0 0 0 0 - - -;
#X text 644 347 <-- Q;
#X obj 107 92 metro 15000;
#X obj 107 200 line;
#X msg 107 173 \$1 \$2;
#X obj 107 148 pack f f;
#X obj 107 62 tgl 15 0 empty empty empty 17 7 0 10 -262144 -1 -1 1
1;
#X floatatom 107 228 5 0 0 0 - - -, f 5;
#X floatatom 258 66 5 0 0 0 - - -, f 5;
#X msg 258 44 3000;
#X obj 112 315 metro 15000;
#X obj 112 452 line;
#X msg 112 425 \$1 \$2;
#X obj 112 400 pack f f;
#X obj 112 285 tgl 15 0 empty empty empty 17 7 0 10 -262144 -1 -1 1
1;
#X floatatom 112 480 5 0 0 0 - - -, f 5;
#X floatatom 263 289 5 0 0 0 - - -, f 5;
#X msg 263 267 10000;
#X obj 112 340 random 2000;
#X obj 112 368 + 80;
#X obj 107 117 random 5;
#X obj 30 31 loadbang;
#X obj 30 56 t b b b;
#X obj 544 388 *~ 1;
#X obj 449 467 tgl 12 0 empty empty Noise 17 7 0 10 -4034 -258113 -1
1 1;
#X obj 507 467 loadbang;
#X msg 507 489 1;
#X msg 556 150 define_loudspeakers 2 -120 -60 0 60 120 180;
#X msg 461 34 15000;
#X text 148 67 RANDOM FREQ;
#X text 340 51 RANDOM AZIMUTH;
#X text 141 285 RANDOM Q;
#X connect 2 0 11 1;
#X connect 3 0 12 1;
#X connect 8 0 34 0;
#X connect 9 0 8 0;
#X connect 11 0 35 0;
#X connect 11 0 41 0;
#X connect 12 0 35 1;
#X connect 12 0 42 0;
#X connect 13 0 15 1;
#X connect 14 0 16 1;
#X connect 15 0 35 2;
#X connect 15 0 43 0;
#X connect 16 0 35 3;
#X connect 16 0 44 0;
#X connect 18 0 19 1;
#X connect 19 0 35 4;
#X connect 19 0 45 0;
#X connect 20 0 11 0;
#X connect 20 0 12 0;
#X connect 20 0 15 0;
#X connect 20 0 16 0;
#X connect 20 0 19 0;
#X connect 20 0 36 0;
#X connect 21 0 70 0;
#X connect 22 0 34 1;
#X connect 23 0 34 2;
#X connect 24 0 22 0;
#X connect 25 0 23 0;
#X connect 27 0 26 0;
#X connect 31 0 36 1;
#X connect 33 0 2 0;
#X connect 33 1 3 0;
#X connect 33 2 13 0;
#X connect 33 3 14 0;
#X connect 33 4 18 0;
#X connect 33 5 31 0;
#X connect 34 0 33 0;
#X connect 34 1 4 0;
#X connect 34 2 5 0;
#X connect 34 3 6 0;
#X connect 36 0 35 5;
#X connect 36 0 46 0;
#X connect 37 0 38 0;
#X connect 38 0 99 0;
#X connect 38 0 64 0;
#X connect 38 1 9 0;
#X connect 38 2 98 0;
#X connect 39 0 52 1;
#X connect 39 0 51 1;
#X connect 39 0 50 1;
#X connect 39 0 49 1;
#X connect 39 0 48 1;
#X connect 39 0 47 1;
#X connect 40 0 39 0;
#X connect 41 0 47 0;
#X connect 42 0 48 0;
#X connect 43 0 49 0;
#X connect 44 0 50 0;
#X connect 45 0 51 0;
#X connect 46 0 52 0;
#X connect 47 0 53 0;
#X connect 48 0 54 0;
#X connect 49 0 55 0;
#X connect 50 0 56 0;
#X connect 51 0 57 0;
#X connect 52 0 58 0;
#X connect 59 0 63 0;
#X connect 60 0 59 0;
#X connect 61 0 65 0;
#X connect 62 0 61 0;
#X connect 63 0 62 0;
#X connect 64 0 60 0;
#X connect 65 0 24 0;
#X connect 66 0 60 1;
#X connect 66 0 63 1;
#X connect 68 0 70 1;
#X connect 70 0 94 0;
#X connect 71 0 70 2;
#X connect 73 0 91 0;
#X connect 74 0 78 0;
#X connect 75 0 74 0;
#X connect 76 0 75 0;
#X connect 77 0 73 0;
#X connect 78 0 71 0;
#X connect 79 0 73 1;
#X connect 79 0 76 1;
#X connect 80 0 79 0;
#X connect 81 0 89 0;
#X connect 82 0 86 0;
#X connect 83 0 82 0;
#X connect 84 0 83 0;
#X connect 85 0 81 0;
#X connect 86 0 68 0;
#X connect 87 0 81 1;
#X connect 87 0 84 1;
#X connect 88 0 87 0;
#X connect 89 0 90 0;
#X connect 90 0 84 0;
#X connect 91 0 76 0;
#X connect 92 0 93 0;
#X connect 93 1 77 0;
#X connect 93 1 85 0;
#X connect 93 2 80 0;
#X connect 93 2 88 0;
#X connect 94 0 20 0;
#X connect 95 0 94 1;
#X connect 96 0 97 0;
#X connect 97 0 95 0;
#X connect 98 0 34 0;
#X connect 99 0 66 0;
#X coords 0 -1 1 1 300 100 1 200 400;
#X restore 363 236 pd SPATIALSON 1;
#X msg 132 335 dsp 1;
#X obj 132 359 send pd;
#N canvas 675 210 982 698 SPATIALSON 0;
#X obj 201 401 cnv 15 298 98 empty empty SpatLecteurAudio 20 12 0 14
-153636 -66577 0;
#X obj 912 554 cnv 15 100 60 empty empty empty 20 12 0 14 -233017 -66577
0;
#X floatatom 648 468 10 0 0 0 - - -, f 10;
#X floatatom 717 468 10 0 0 0 - - -, f 10;
#X floatatom 723 381 0 0 0 3 actual_azimuth - -;
#X floatatom 774 362 0 0 0 3 actual_elevation - -;
#X floatatom 767 337 7 0 0 1 actual_spreading - -, f 7;
#X text 666 177 to output updated values;
#X obj 648 198 metro 100;
#X obj 648 176 tgl 15 0 empty empty empty 17 7 0 10 -262144 -1 -1 1
1;
#X text 877 250 (ignore elevation in 2D \, that's for 3D);
#X obj 599 567 *~;
#X obj 628 568 *~;
#X floatatom 786 468 10 0 0 0 - - -, f 10;
#X floatatom 855 468 10 0 0 0 - - -, f 10;
#X obj 659 567 *~;
#X obj 688 568 *~;
#X text 554 35 Define 2D speaker arrangement with speakers at -135
\, -45 \, 0 \, 45 and 135 degree positions (0 degrees is the center
front). This is a classic 5.1 setup.;
#X floatatom 925 468 10 0 0 0 - - -, f 10;
#X obj 718 568 *~;
#X floatatom 296 446 5 0 0 2 - - -, f 5;
#X floatatom 705 268 5 0 0 2 - - -, f 5;
#X obj 299 430 hsl 100 13 0 360 0 0 empty empty azimuth 10 7 0 10 -258070
-1 -1 6118 1;
#X obj 708 251 hsl 100 13 0 360 0 0 empty empty elevation 10 7 0 10
-262144 -1 -1 0 1;
#X floatatom 407 448 5 0 0 2 - - -, f 5;
#X obj 410 431 hsl 60 13 0 100 0 0 empty empty spread 10 7 0 10 -259163
-1 -1 0 1;
#X text 855 269 (0-100);
#X text 815 248 (0-360);
#X text 775 230 (0-360);
#X floatatom 998 468 10 0 0 0 - - -, f 10;
#X obj 648 419 route 0 1 2 3 4 5;
#X obj 648 310 vbap 0 0 30;
#X obj 608 601 dac~ 1 2 3 4 5 6;
#X obj 752 568 *~;
#X obj 641 93 loadbang;
#X obj 641 118 t b b b;
#X obj 540 542 tgl 15 0 empty empty empty 17 7 0 10 -262144 -1 -1 1
1;
#X obj 427 467 tgl 12 0 empty empty empty 17 7 0 10 -258113 -262144
-1 1 1;
#X obj 225 602 env~;
#X obj 266 602 env~;
#X obj 301 599 env~;
#X obj 335 599 env~;
#X obj 376 599 env~;
#X obj 411 596 env~;
#X obj 224 628 spigot;
#X obj 266 628 spigot;
#X obj 308 627 spigot;
#X obj 350 627 spigot;
#X obj 394 626 spigot;
#X obj 437 626 spigot;
#X obj 296 469 vsl 16 20 0 100 0 0 empty empty empty 0 -9 0 10 -258113
-1 -1 0 1;
#X obj 312 469 vsl 16 20 0 100 0 0 empty empty empty 0 -9 0 10 -258113
-1 -1 0 1;
#X obj 328 469 vsl 16 20 0 100 0 0 empty empty empty 0 -9 0 10 -258113
-1 -1 0 1;
#X obj 344 469 vsl 16 20 0 100 0 0 empty empty empty 0 -9 0 10 -258113
-1 -1 0 1;
#X obj 360 469 vsl 16 20 0 100 0 0 empty empty empty 0 -9 0 10 -258113
-1 -1 0 1;
#X obj 376 469 vsl 16 20 0 100 0 0 empty empty empty 0 -9 0 10 -258113
-1 -1 0 1;
#X obj 447 257 random 360;
#X obj 447 232 metro 15000;
#X obj 447 340 line;
#X msg 447 313 \$1 \$2;
#X msg 598 184 5000;
#X obj 447 288 pack f f;
#X obj 447 202 tgl 15 0 empty empty empty 17 7 0 10 -262144 -1 -1 1
1;
#X floatatom 447 368 5 0 0 0 - - -, f 5;
#X floatatom 598 206 5 0 0 0 - - -, f 5;
#X text 644 347 <-- Q;
#X obj 547 382 *~ 1;
#X obj 449 467 tgl 12 0 empty empty Noise 17 7 0 10 -4034 -258113 -1
1 1;
#X obj 507 467 loadbang;
#X msg 507 489 1;
#X msg 316 191 play;
#X msg -115 326 pause;
#X msg -185 423 speed \$1;
#X floatatom -185 400 5 0 0 0 - - -, f 5;
#X msg -143 377 1;
#X msg 181 205 open \$1;
#X obj 181 177 openpanel;
#X obj 181 142 bng 25 250 50 0 empty empty empty 17 7 0 10 -4032 -1
-1;
#X msg 356 190 stop;
#X msg -185 376 0.21;
#X floatatom -153 664 5 0 0 0 - - -, f 5;
#X floatatom -107 616 5 0 0 0 - - -, f 5;
#X floatatom -198 694 5 0 0 0 - - -, f 5;
#X msg 256 206 loop \$1;
#X obj 256 186 tgl 15 0 empty empty empty 17 7 0 10 -262144 -1 -1 0
1;
#X floatatom -62 579 5 0 0 0 - - -, f 5;
#X obj 67 516 bng 15 250 50 0 empty empty empty 17 7 0 10 -262144 -1
-1;
#X obj -198 490 route ready samplerate length cache float bang;
#X floatatom -16 547 5 0 0 0 - - -, f 5;
#X text 92 517 bang: end of file.;
#X text 254 167 loop on/off;
#X obj 316 222 readanysf~ 2;
#X obj 219 31 loadbang;
#X obj 219 58 t b b b;
#X obj 219 92 \$1;
#X obj 251 92 \$2;
#X obj 84 221 print fffile;
#X obj 356 149 t b;
#X msg 2062 975 draw quadstrip;
#X text -153 693 ready: status for when a file is loaded and ready
;
#X text -21 578 cache: percentage (0.0->1.0) of;
#X text 20 591 cache being used.;
#X text 26 546 float: position of file in seconds;
#X text 67 559 relative to the file's samplerate;
#X text -68 615 length: total duration of file in seconds;
#X text -95 665 The samplerate of the file being played.;
#X obj 219 128 makefilename ../audioEletromagnetisme/%d.wav;
#X obj 265 -45 random 15;
#X obj 236 -86 tgl 21 0 empty empty Random -6 -10 0 10 -204770 -1 -1
0 1;
#X floatatom 283 58 5 0 0 0 - - -, f 5;
#X floatatom 242 472 5 0 0 0 - - -, f 5;
#X obj 265 -23 t b f b b f;
#X obj -241 663 sel 1;
#X obj 236 443 tgl 21 0 empty empty Random -6 -10 0 10 -204770 -1 -1
0 1;
#X obj 546 405 *~ 1;
#X msg 556 150 define_loudspeakers 2 -120 -60 0 60 120 180;
#X text 365 -82 temps entre 2 tirages aléat de l'audio;
#X obj 265 -83 metro 12000;
#X connect 2 0 11 1;
#X connect 3 0 12 1;
#X connect 8 0 31 0;
#X connect 9 0 8 0;
#X connect 11 0 32 0;
#X connect 11 0 38 0;
#X connect 12 0 32 1;
#X connect 12 0 39 0;
#X connect 13 0 15 1;
#X connect 14 0 16 1;
#X connect 15 0 32 2;
#X connect 15 0 40 0;
#X connect 16 0 32 3;
#X connect 16 0 41 0;
#X connect 18 0 19 1;
#X connect 19 0 32 4;
#X connect 19 0 42 0;
#X connect 20 0 31 1;
#X connect 21 0 31 2;
#X connect 22 0 20 0;
#X connect 23 0 21 0;
#X connect 25 0 24 0;
#X connect 29 0 33 1;
#X connect 30 0 2 0;
#X connect 30 1 3 0;
#X connect 30 2 13 0;
#X connect 30 3 14 0;
#X connect 30 4 18 0;
#X connect 30 5 29 0;
#X connect 31 0 30 0;
#X connect 31 1 4 0;
#X connect 31 2 5 0;
#X connect 31 3 6 0;
#X connect 33 0 32 5;
#X connect 33 0 43 0;
#X connect 34 0 35 0;
#X connect 35 0 60 0;
#X connect 35 0 62 0;
#X connect 35 1 9 0;
#X connect 35 2 115 0;
#X connect 36 0 49 1;
#X connect 36 0 48 1;
#X connect 36 0 47 1;
#X connect 36 0 46 1;
#X connect 36 0 45 1;
#X connect 36 0 44 1;
#X connect 37 0 36 0;
#X connect 38 0 44 0;
#X connect 39 0 45 0;
#X connect 40 0 46 0;
#X connect 41 0 47 0;
#X connect 42 0 48 0;
#X connect 43 0 49 0;
#X connect 44 0 50 0;
#X connect 45 0 51 0;
#X connect 46 0 52 0;
#X connect 47 0 53 0;
#X connect 48 0 54 0;
#X connect 49 0 55 0;
#X connect 56 0 61 0;
#X connect 57 0 56 0;
#X connect 58 0 63 0;
#X connect 59 0 58 0;
#X connect 60 0 64 0;
#X connect 61 0 59 0;
#X connect 62 0 57 0;
#X connect 63 0 22 0;
#X connect 64 0 57 1;
#X connect 64 0 61 1;
#X connect 66 0 114 0;
#X connect 67 0 66 1;
#X connect 68 0 69 0;
#X connect 69 0 67 0;
#X connect 70 0 91 0;
#X connect 71 0 91 0;
#X connect 72 0 91 0;
#X connect 73 0 72 0;
#X connect 74 0 73 0;
#X connect 75 0 91 0;
#X connect 75 0 96 0;
#X connect 76 0 75 0;
#X connect 77 0 76 0;
#X connect 78 0 91 0;
#X connect 79 0 73 0;
#X connect 81 0 110 0;
#X connect 82 0 112 0;
#X connect 83 0 91 0;
#X connect 84 0 83 0;
#X connect 87 0 82 0;
#X connect 87 1 80 0;
#X connect 87 2 81 0;
#X connect 87 3 85 0;
#X connect 87 4 88 0;
#X connect 87 5 86 0;
#X connect 91 0 66 0;
#X connect 91 1 66 0;
#X connect 91 2 87 0;
#X connect 92 0 93 0;
#X connect 93 0 94 0;
#X connect 93 1 95 0;
#X connect 94 0 106 0;
#X connect 95 0 84 0;
#X connect 97 0 78 0;
#X connect 106 0 75 0;
#X connect 107 0 111 0;
#X connect 108 0 117 0;
#X connect 109 0 106 0;
#X connect 111 1 109 0;
#X connect 111 2 97 0;
#X connect 112 0 70 0;
#X connect 113 0 108 0;
#X connect 114 0 11 0;
#X connect 114 0 12 0;
#X connect 114 0 15 0;
#X connect 114 0 16 0;
#X connect 114 0 19 0;
#X connect 114 0 33 0;
#X connect 115 0 31 0;
#X connect 117 0 107 0;
#X coords 0 -1 1 1 300 100 1 200 400;
#X restore 364 389 pd SPATIALSON 1 0;
#X obj 132 304 loadbang;
#X connect 16 0 35 0;
#X connect 17 0 16 0;
#X connect 18 0 22 0;
#X connect 19 0 22 0;
#X connect 20 0 21 0;
#X connect 20 1 31 0;
#X connect 20 2 32 0;
#X connect 20 3 33 0;
#X connect 20 4 34 0;
#X connect 21 0 18 0;
#X connect 21 1 24 0;
#X connect 21 1 26 0;
#X connect 21 1 28 0;
#X connect 21 1 30 0;
#X connect 23 0 37 0;
#X connect 24 0 37 0;
#X connect 25 0 38 0;
#X connect 26 0 38 0;
#X connect 27 0 39 0;
#X connect 28 0 39 0;
#X connect 29 0 40 0;
#X connect 30 0 40 0;
#X connect 31 0 23 0;
#X connect 31 1 19 0;
#X connect 31 1 26 0;
#X connect 31 1 28 0;
#X connect 31 1 30 0;
#X connect 32 0 25 0;
#X connect 32 1 19 0;
#X connect 32 1 24 0;
#X connect 32 1 28 0;
#X connect 32 1 30 0;
#X connect 33 0 27 0;
#X connect 33 1 26 0;
#X connect 33 1 24 0;
#X connect 33 1 19 0;
#X connect 33 1 30 0;
#X connect 34 0 29 0;
#X connect 34 1 28 0;
#X connect 34 1 26 0;
#X connect 34 1 24 0;
#X connect 34 1 19 0;
#X connect 35 0 20 0;
#X connect 36 0 35 1;
#X connect 43 0 44 0;
#X connect 46 0 43 0;
