#N canvas 695 248 977 639 10;
#X declare -lib moonlib;
#X obj 0 -125 cnv 15 331 331 empty empty Lecteur_Vid 20 12 0 14 -260460
-66577 0;
#X obj 13 -98 cnv 15 100 60 empty empty Vid_01 20 12 0 14 -262131 -66577
0;
#X obj 332 -125 cnv 15 303 332 empty empty Start 20 12 0 14 -260838
-66577 0;
#X floatatom 28 74 5 0 0 0 - - -;
#X obj 49 97 bng 21 250 50 0 empty empty load 0 -6 0 8 -24198 -258699
-1;
#X obj 8 22 tgl 29 0 empty \$0-ib1 empty 0 -6 0 8 -258699 -24198 -1
1 1;
#X text 4 5 GEM O/F;
#N canvas 764 37 709 677 Lect_VIDEO_Auto_Tai_Alpha 0;
#X obj 1 -28 cnv 15 300 650 empty empty Pix_Film 20 12 0 14 -260460
-66577 0;
#X obj 302 -28 cnv 15 400 370 empty empty Pilotage_Tete_Lecture 20
12 0 14 -225271 -66577 0;
#X obj 82 158 pix_film;
#X msg 29 141 auto \$1;
#X msg 160 63 open \$1;
#X obj 160 44 openpanel;
#X obj 160 26 bng 15 250 50 0 empty empty empty 0 -6 0 8 -262144 -1
-1;
#X obj 12 142 tgl 15 0 empty empty empty 0 -6 0 8 -262144 -1 -1 0 1
;
#X obj 168 141 t f;
#X floatatom 125 128 5 0 0 0 - - -;
#X obj 103 218 unpack 0 0 0;
#X floatatom 103 240 5 0 0 3 length - -;
#X floatatom 136 240 5 0 0 3 width - -;
#X floatatom 170 240 5 0 0 3 height - -;
#X obj 148 182 bng 15 250 50 0 empty empty La_Fin 20 7 0 8 -262144
-1 -1;
#X floatatom 181 288 5 0 0 0 - - -;
#X obj 117 524 inlet;
#X obj 368 163 inlet;
#X msg 12 378 quality 0;
#X msg 12 396 quality 1;
#X obj 160 0 inlet;
#X obj 82 415 pix_texture;
#X text 15 122 Auto O/F;
#X obj 143 273 outlet;
#X obj 81 494 alpha;
#X obj 63 495 tgl 15 0 empty empty empty 0 -6 0 8 -262144 -1 -1 1 1
;
#X floatatom 117 580 5 0 0 0 - - -;
#X floatatom 153 581 5 0 0 0 - - -;
#X floatatom 117 545 5 0 0 0 - - -;
#X obj 153 564 * 3;
#X obj 153 564 / 4;
#X obj 81 518 color;
#X obj 63 451 loadbang;
#X msg 63 468 1;
#X obj 407 163 inlet;
#X obj 82 3 inlet;
#X obj 485 99 inlet;
#X obj 252 301 inlet;
#X obj 218 477 pack f f f f;
#X msg 218 501 \$1 \$2 \$3 \$4;
#X obj 252 351 vsl 8 50 0 1 0 0 empty empty empty 0 -8 0 8 -195568
-1 -1 0 1;
#X obj 251 422 t b f;
#X floatatom 252 404 5 0 0 0 - - -;
#X obj 218 448 unpack f f f f;
#X obj 135 97 outlet;
#X obj 446 209 tgl 19 0 empty empty Inv 0 -6 0 8 -233017 -24198 -1
1 1;
#X obj 561 207 f;
#X floatatom 561 266 5 0 0 0 - - -;
#X floatatom 522 266 5 0 0 0 - - -;
#X msg 522 233 1;
#X text 506 250 fram min;
#X text 565 250 fram max;
#X obj 368 194 tgl 21 0 empty empty Start 0 -6 0 8 -24198 -258699 -1
0 1;
#X floatatom 407 201 5 0 0 2 Vit_Metro - -;
#X obj 446 163 inlet;
#X obj 485 141 moses 1;
#X obj 82 32 tgl 19 0 empty empty empty 0 -6 0 8 -258699 -1 -1 1 1
;
#X text 87 18 GEM O/F;
#X obj 522 216 r \$0-b;
#X obj 368 319 outlet;
#X obj 485 119 i;
#N canvas 0 0 692 697 Compteur_fps_Vid_Av_AR_min_max 0;
#X obj 38 346 spigot;
#X obj 69 331 tgl 15 0 empty empty Inv 0 -6 0 8 -195568 -1 -1 1 1;
#X obj 118 345 spigot;
#X obj 148 330 tgl 15 0 empty empty Inv 0 -6 0 8 -195568 -1 -1 0 1
;
#X obj 147 294 invert;
#X obj 96 292 inlet;
#X obj 76 466 outlet;
#X obj 281 272 inlet;
#X floatatom 286 293 5 0 0 0 - - -;
#X obj 118 390 expr ($f2-$f1);
#X obj 262 394 change;
#X obj 262 374 select 1;
#X obj 262 355 > 24;
#X obj 281 336 - 1;
#X obj 234 466 outlet;
#X floatatom 294 320 5 0 0 0 - - -;
#X obj 38 123 f;
#X obj 64 123 + 1;
#X obj 38 97 metro 40;
#X obj 14 95 bng 15 250 50 0 empty empty empty 0 -6 0 8 -262144 -1
-1;
#X obj 38 73 tgl 19 0 empty empty Start 0 -6 0 8 -24198 -258699 -1
0 1;
#X floatatom 81 78 5 0 0 2 Vit_Metro - -;
#X text 286 257 frame max;
#X text 257 158 frame min;
#X obj 262 240 f;
#X obj 38 192 f;
#X obj 262 179 inlet;
#X obj 39 37 inlet;
#X obj 81 37 inlet;
#X obj 172 90 inlet;
#X floatatom 58 172 5 0 0 0 - - -;
#X floatatom 225 196 5 0 0 0 - - -;
#X obj 262 415 t b;
#X connect 0 0 6 0;
#X connect 1 0 0 1;
#X connect 1 0 4 0;
#X connect 2 0 9 0;
#X connect 3 0 2 1;
#X connect 4 0 3 0;
#X connect 5 0 1 0;
#X connect 7 0 8 0;
#X connect 7 0 13 0;
#X connect 7 0 9 1;
#X connect 9 0 6 0;
#X connect 10 0 32 0;
#X connect 11 0 10 0;
#X connect 12 0 11 0;
#X connect 13 0 12 1;
#X connect 15 0 13 1;
#X connect 16 0 17 0;
#X connect 16 0 25 0;
#X connect 16 0 30 0;
#X connect 17 0 16 1;
#X connect 18 0 16 0;
#X connect 19 0 16 0;
#X connect 20 0 18 0;
#X connect 21 0 18 1;
#X connect 24 0 16 1;
#X connect 25 0 0 0;
#X connect 25 0 2 0;
#X connect 25 0 12 0;
#X connect 26 0 24 1;
#X connect 27 0 20 0;
#X connect 28 0 21 0;
#X connect 29 0 16 0;
#X connect 31 0 24 0;
#X connect 32 0 24 0;
#X connect 32 0 14 0;
#X restore 368 294 pd Compteur_fps_Vid_Av_AR_min_max;
#X obj 125 181 t b;
#X obj 561 311 bng 15 250 50 0 empty empty La_Fin 20 7 0 8 -262144
-1 -1;
#X obj 561 326 outlet;
#X obj 173 371 vsl 8 50 0 1 0 0 empty empty empty 0 -8 0 8 -258699
-1 -1 4900 1;
#X obj 180 371 vsl 8 50 0 1 0 0 empty empty empty 0 -8 0 8 -24198 -1
-1 4900 1;
#X obj 188 371 vsl 8 50 0 1 0 0 empty empty empty 0 -8 0 8 -355 -1
-1 4900 1;
#N canvas 0 0 460 310 color 0;
#X obj 44 212 pack f f f f;
#X msg 44 236 \$1 \$2 \$3 \$4;
#X obj 26 145 bng 15 250 50 0 empty empty empty 0 -6 0 8 -262144 -1
-1;
#X obj 41 144 t b f;
#X obj 41 35 vsl 8 50 0 1 0 0 empty empty empty 0 -8 0 8 -258699 -1
-1 4900 1;
#X obj 49 35 vsl 8 50 0 1 0 0 empty empty empty 0 -8 0 8 -24198 -1
-1 4900 1;
#X obj 57 35 vsl 8 50 0 1 0 0 empty empty empty 0 -8 0 8 -355 -1 -1
4900 1;
#X obj 65 35 vsl 8 50 0 1 0 0 empty empty empty 0 -8 0 8 -195568 -1
-1 4900 1;
#X obj 63 167 t b f;
#X obj 86 189 t b f;
#X floatatom 77 86 5 0 0 0 - - -;
#X floatatom 67 101 5 0 0 0 - - -;
#X floatatom 53 115 5 0 0 0 - - -;
#X floatatom 35 129 5 0 0 0 - - -;
#X obj 17 7 inlet;
#X obj 52 7 inlet;
#X obj 87 7 inlet;
#X obj 122 8 inlet;
#X obj 44 261 outlet;
#X connect 0 0 1 0;
#X connect 1 0 18 0;
#X connect 2 0 0 0;
#X connect 3 0 0 0;
#X connect 3 1 0 1;
#X connect 4 0 0 0;
#X connect 4 0 13 0;
#X connect 5 0 3 0;
#X connect 5 0 12 0;
#X connect 6 0 8 0;
#X connect 6 0 11 0;
#X connect 7 0 9 0;
#X connect 7 0 10 0;
#X connect 8 0 0 0;
#X connect 8 1 0 2;
#X connect 9 0 0 0;
#X connect 9 1 0 3;
#X connect 14 0 4 0;
#X connect 15 0 5 0;
#X connect 16 0 6 0;
#X connect 17 0 7 0;
#X restore 163 431 pd color;
#X obj 196 371 vsl 8 50 0 1 0 0 empty empty empty 0 -8 0 8 -195568
-1 -1 4900 1;
#X msg 185 346 1;
#X obj 186 327 r \$0-b;
#X obj 207 0 inlet;
#X obj 464 27 hsl 128 15 0 90 0 0 empty fps_rcv Scratch_90 -2 -8 0
10 -204786 -258113 -1 0 1;
#X floatatom 461 47 9 0 0 0 - - -;
#X floatatom 205 540 5 0 0 0 - - -;
#X obj 248 534 / 1;
#X obj 255 571 * 272;
#X obj 274 597 / 627;
#X floatatom 220 292 5 0 0 0 - - -;
#X obj 394 458 f;
#X msg 394 429 bang;
#X floatatom 440 416 3 55 440 0 - - -;
#X floatatom 445 458 6 440 3520 0 - - -;
#X obj 394 481 pack 0 0;
#X text 460 428 left-range-bound;
#X text 516 450 right-range-bound;
#X obj 394 399 t b f;
#X msg 394 506 \; fps_rcv range \$1 \$2;
#X obj 103 292 s \$0-fpsmax;
#X obj 394 378 r \$0-fpsmax;
#X msg 456 541 \; fps_rcv label \$1;
#X obj 456 482 makesymbol Scratch_%s;
#X obj 461 68 int;
#X obj 82 55 gemhead 70;
#X obj 81 599 rectangle 8 6;
#X obj 82 324 translateXYZ 12 6 0;
#X floatatom 424 341 5 0 0 0 - - -;
#X connect 2 0 96 0;
#X connect 2 1 10 0;
#X connect 2 2 62 0;
#X connect 3 0 2 0;
#X connect 4 0 2 0;
#X connect 5 0 4 0;
#X connect 5 0 44 0;
#X connect 6 0 5 0;
#X connect 7 0 3 0;
#X connect 8 0 2 1;
#X connect 9 0 2 1;
#X connect 10 0 11 0;
#X connect 10 0 46 0;
#X connect 10 1 12 0;
#X connect 10 2 13 0;
#X connect 11 0 23 0;
#X connect 11 0 89 0;
#X connect 15 0 96 1;
#X connect 16 0 28 0;
#X connect 17 0 52 0;
#X connect 18 0 21 0;
#X connect 19 0 21 0;
#X connect 20 0 6 0;
#X connect 21 0 24 0;
#X connect 24 0 31 0;
#X connect 25 0 24 0;
#X connect 26 0 95 1;
#X connect 27 0 95 2;
#X connect 28 0 29 0;
#X connect 28 0 26 0;
#X connect 29 0 30 0;
#X connect 30 0 27 0;
#X connect 31 0 95 0;
#X connect 32 0 33 0;
#X connect 33 0 25 0;
#X connect 34 0 53 0;
#X connect 35 0 56 0;
#X connect 36 0 60 0;
#X connect 37 0 40 0;
#X connect 38 0 39 0;
#X connect 39 0 31 1;
#X connect 40 0 41 0;
#X connect 40 0 42 0;
#X connect 41 0 38 0;
#X connect 41 1 38 3;
#X connect 43 0 38 0;
#X connect 43 1 38 1;
#X connect 43 2 38 2;
#X connect 43 3 38 3;
#X connect 45 0 61 2;
#X connect 46 0 47 0;
#X connect 46 0 55 1;
#X connect 47 0 61 5;
#X connect 48 0 61 4;
#X connect 49 0 48 0;
#X connect 52 0 61 0;
#X connect 53 0 61 1;
#X connect 54 0 45 0;
#X connect 55 0 61 3;
#X connect 56 0 94 0;
#X connect 58 0 49 0;
#X connect 60 0 55 0;
#X connect 61 0 2 1;
#X connect 61 0 59 0;
#X connect 61 0 97 0;
#X connect 61 1 63 0;
#X connect 62 0 14 0;
#X connect 63 0 64 0;
#X connect 65 0 68 0;
#X connect 66 0 68 1;
#X connect 67 0 68 2;
#X connect 68 0 43 0;
#X connect 68 0 31 1;
#X connect 69 0 68 3;
#X connect 70 0 65 0;
#X connect 70 0 66 0;
#X connect 70 0 67 0;
#X connect 70 0 69 0;
#X connect 71 0 70 0;
#X connect 72 0 44 0;
#X connect 72 0 2 0;
#X connect 73 0 74 0;
#X connect 74 0 93 0;
#X connect 75 0 76 0;
#X connect 76 0 26 0;
#X connect 76 0 77 0;
#X connect 77 0 78 0;
#X connect 78 0 27 0;
#X connect 79 0 96 2;
#X connect 80 0 84 0;
#X connect 81 0 80 0;
#X connect 82 0 80 1;
#X connect 83 0 84 1;
#X connect 83 0 92 0;
#X connect 84 0 88 0;
#X connect 87 0 81 0;
#X connect 87 1 83 0;
#X connect 90 0 87 0;
#X connect 92 0 91 0;
#X connect 93 0 61 3;
#X connect 94 0 2 0;
#X connect 96 0 21 0;
#X restore 8 120 pd Lect_VIDEO_Auto_Tai_Alpha;
#X obj 90 49 vsl 8 50 0 1 0 0 empty empty empty 0 -8 0 8 -195568 -1
-1 0 1;
#X floatatom 63 149 5 0 0 0 - - -;
#X symbolatom 7 184 52 0 0 0 - - -;
#X obj 146 102 tgl 19 0 empty \$0-ib1 Inv 0 -6 0 8 -233017 -24198 -1
1 1;
#X obj 111 35 tgl 21 0 empty empty Start 0 -6 0 8 -24198 -258699 -1
0 1;
#X floatatom 132 72 5 0 0 2 Vit_Metro - -;
#X obj 178 140 bng 15 250 50 0 empty empty La_Fin 20 7 0 8 -1 -258699
-1;
#X obj 118 149 spigot;
#X obj 160 151 tgl 15 0 empty empty Mon 0 -6 0 8 -258699 -1 -1 0 1
;
#X obj 0 207 cnv 15 635 300 empty empty Audio 20 12 0 14 -261614 -66577
0;
#N canvas 837 150 783 770 audiosf 0;
#X obj 669 18 import moonlib;
#X obj 14 51 bng 15 250 50 0 empty empty empty 0 -6 0 8 -262144 -1
-1;
#X obj 14 14 inlet;
#X obj 447 529 inlet;
#X obj 447 567 dbtorms;
#X obj 447 607 line~;
#X obj 311 668 *~;
#X obj 311 698 dac~;
#X obj 447 587 pack 0 50;
#X text 308 438 audio in;
#X text 490 545 <-- convert from dB to linear units;
#X text 305 418 <-- make a ramp to avoid clicks or zipper noise;
#X obj 373 665 *~;
#X floatatom 447 549 5 0 100 0 - - -;
#X obj 85 13 inlet;
#X obj 14 76 t b b;
#X obj 85 47 tgl 21 0 empty \$0-starta Play 0 -6 0 8 -24198 -258699
-1 0 1;
#X obj 85 74 select 0 1;
#X obj 46 117 inlet;
#X msg 402 216 open \$1;
#X obj 266 165 bng 15 250 50 0 empty empty play 20 8 1 8 -24198 -1
-1;
#X msg 539 260 loop \$1;
#X obj 539 242 tgl 15 1 empty empty loop 20 8 0 8 -241291 -1 -1 0 1
;
#X obj 304 117 tgl 15 1 empty empty interpolation 20 8 1 8 -257472
-1 -1 1 1;
#X msg 304 135 interp \$1;
#X obj 705 195 vsl 15 128 -8 8 0 0 empty empty speed 0 -8 1 8 -260818
-1 -1 7144 1;
#X obj 402 106 openpanel;
#X obj 402 86 bng 15 250 50 0 empty empty open 0 -6 1 8 -166441 -1
-1;
#X obj 265 193 bng 15 250 50 0 empty empty stop 20 8 1 8 -1 -1 -1;
#X msg 265 210 0;
#X text 482 173 resets sound to position;
#X text 481 162 start position in samples;
#X obj 744 191 loadbang;
#X msg 744 210 1;
#X msg 517 129 symbol /usr/local/lib/pd/doc/sound/voice.wav;
#X msg 517 108 symbol ../../sound/voice.wav;
#X obj 325 520 hip~ 15;
#X obj 387 520 hip~ 15;
#X msg 485 188 index \$1;
#X floatatom 267 45 5 0 0 0 - - -;
#X floatatom 336 24 5 0 0 0 - - -;
#X obj 242 115 * 44100;
#X floatatom 710 351 5 0 0 0 - - -;
#X msg 700 151 0.81;
#X obj 402 276 sfread2~ 2;
#X msg 356 182 close;
#X obj 325 53 / 29.969;
#X obj 242 17 inlet;
#X obj 242 68 / 25;
#X obj 325 360 outlet;
#X msg 325 331 set \$1;
#X obj 539 216 init 0;
#X connect 1 0 15 0;
#X connect 1 0 27 0;
#X connect 2 0 1 0;
#X connect 3 0 13 0;
#X connect 4 0 8 0;
#X connect 5 0 12 0;
#X connect 5 0 6 0;
#X connect 6 0 7 0;
#X connect 8 0 5 0;
#X connect 12 0 7 1;
#X connect 13 0 4 0;
#X connect 14 0 16 0;
#X connect 16 0 17 0;
#X connect 17 0 28 0;
#X connect 17 1 20 0;
#X connect 18 0 44 0;
#X connect 19 0 44 0;
#X connect 19 0 50 0;
#X connect 20 0 44 0;
#X connect 21 0 44 0;
#X connect 22 0 21 0;
#X connect 23 0 24 0;
#X connect 24 0 44 0;
#X connect 25 0 42 0;
#X connect 26 0 19 0;
#X connect 27 0 26 0;
#X connect 28 0 29 0;
#X connect 29 0 44 0;
#X connect 32 0 33 0;
#X connect 33 0 25 0;
#X connect 34 0 19 0;
#X connect 35 0 19 0;
#X connect 36 0 6 1;
#X connect 37 0 12 1;
#X connect 38 0 44 0;
#X connect 39 0 48 0;
#X connect 40 0 46 0;
#X connect 41 0 38 0;
#X connect 42 0 44 1;
#X connect 43 0 25 0;
#X connect 44 0 36 0;
#X connect 44 1 37 0;
#X connect 45 0 44 0;
#X connect 46 0 41 0;
#X connect 47 0 48 0;
#X connect 48 0 41 0;
#X connect 50 0 49 0;
#X connect 51 0 22 0;
#X restore 17 429 pd audiosf;
#X symbolatom 17 452 52 0 0 0 - - -;
#X obj 85 430 bng 15 250 50 0 empty empty La_Fin 20 7 0 8 -1 -258699
-1;
#X obj 513 7 cnv 15 80 30 empty empty empty 20 12 0 14 -233017 -66577
0;
#X obj 511 224 loadbang;
#X obj 499 247 s \$0-b;
#X obj 535 9 tgl 25 0 empty empty Start_AV 0 -6 0 8 -24198 -258699
-1 0 1;
#X floatatom 59 383 5 0 0 0 - - -;
#X floatatom 72 410 5 0 100 2 vol - -;
#X obj 17 393 bng 21 250 50 0 empty empty load 0 -6 0 8 -24198 -258699
-1;
#X obj 45 352 tgl 21 0 empty empty Play 0 -6 0 8 -24198 -258699 -1
0 1;
#X obj 139 371 r \$0-b;
#X msg 139 393 95;
#X floatatom 171 105 5 0 0 2 Num_Frame - -;
#X floatatom 118 166 5 0 0 0 - - -;
#X floatatom 90 102 3 0 0 0 - - -;
#X msg 549 246 1;
#X text 13 57 taill aff;
#X msg 31 312 close;
#X text 68 368 Num frame;
#X obj 125 240 f;
#X text 184 239 CHECK AUDIO RATE FPS;
#X obj 551 263 s \$0-ib1;
#X obj 252 -107 init \$1;
#X floatatom 252 -76 5 0 0 0 - - -;
#X msg 253 104 open \$1;
#X obj 253 -10 getdir;
#X msg 372 412 open \$1;
#X obj 253 70 makesymbol %s/medias/%s.mov;
#X msg 307 121 set \$1;
#X msg 307 147 /media/Docs/Pd_ch_20042504/FICH52BenjInstall/Olivier Baudu/detc-mvt-DnD/medias/1.mov
;
#X msg 372 441 set \$1;
#X msg 372 466 /media/Docs/Pd_ch_20042504/FICH52BenjInstall/Olivier Baudu/detc-mvt-DnD/medias/1.wav
;
#X obj 372 314 makesymbol %s/medias/%s.wav %s;
#X obj 253 33 pack s f s;
#X obj 252 -44 t b f b;
#X msg 310 -5 l;
#X obj 535 -117 inlet;
#X obj 535 -82 t f f;
#X obj 129 -65 sel 0 1;
#X msg 117 -43 0 300;
#X msg 158 -43 1 300;
#X obj 90 -7 line;
#X obj 245 127 t b b;
#X msg 272 149 0;
#X obj 117 -93 r \$0-b;
#X obj 203 160 s finvideo;
#X connect 3 0 7 1;
#X connect 4 0 7 2;
#X connect 5 0 7 0;
#X connect 7 0 10 0;
#X connect 7 1 9 0;
#X connect 7 2 15 0;
#X connect 7 2 38 1;
#X connect 7 3 14 0;
#X connect 8 0 33 0;
#X connect 11 0 7 7;
#X connect 12 0 7 5;
#X connect 13 0 7 6;
#X connect 14 0 38 0;
#X connect 14 0 61 0;
#X connect 15 0 32 0;
#X connect 16 0 15 1;
#X connect 18 0 19 0;
#X connect 22 0 23 0;
#X connect 22 0 34 0;
#X connect 24 0 28 0;
#X connect 24 0 12 0;
#X connect 25 0 18 3;
#X connect 26 0 18 4;
#X connect 27 0 18 0;
#X connect 28 0 18 2;
#X connect 29 0 30 0;
#X connect 30 0 26 0;
#X connect 31 0 7 8;
#X connect 31 0 38 0;
#X connect 33 0 7 4;
#X connect 34 0 40 0;
#X connect 38 0 25 0;
#X connect 41 0 42 0;
#X connect 42 0 53 0;
#X connect 43 0 7 3;
#X connect 43 0 47 0;
#X connect 44 0 52 0;
#X connect 45 0 49 0;
#X connect 45 0 18 1;
#X connect 46 0 43 0;
#X connect 47 0 48 0;
#X connect 49 0 50 0;
#X connect 51 0 45 0;
#X connect 52 0 46 0;
#X connect 52 0 51 0;
#X connect 53 0 44 0;
#X connect 53 1 52 1;
#X connect 53 2 54 0;
#X connect 54 0 52 2;
#X connect 55 0 56 0;
#X connect 56 0 57 0;
#X connect 56 1 24 0;
#X connect 57 0 58 0;
#X connect 57 1 59 0;
#X connect 58 0 60 0;
#X connect 59 0 60 0;
#X connect 60 0 8 0;
#X connect 61 0 58 0;
#X connect 61 0 64 0;
#X connect 61 1 62 0;
#X connect 62 0 24 0;
#X connect 63 0 58 0;
#X coords 0 -1 1 1 85 60 1 510 -20;
